<?xml version="1.0" standalone="no"?><!DOCTYPE svg PUBLIC "-//W3C//DTD SVG 1.1//EN" "http://www.w3.org/Graphics/SVG/1.1/DTD/svg11.dtd"><svg t="1740555306398" class="icon" viewBox="0 0 1024 1024" version="1.1" xmlns="http://www.w3.org/2000/svg" p-id="2190" xmlns:xlink="http://www.w3.org/1999/xlink" width="200" height="200"><path d="M195.327541 505.553631a337.969888 337.409408 0 1 0 675.939777 0 337.969888 337.409408 0 1 0-675.939777 0Z" fill="#FAD700" p-id="2191"></path><path d="M306.302729 256.700181a337.409408 337.409408 0 1 1 378.884982 550.952571 337.409408 337.409408 0 0 0-378.884982-550.952571z" fill="#FFBE34" p-id="2192"></path><path d="M350.020227 223.071336a337.409408 337.409408 0 1 1 326.760273 588.504781 337.409408 337.409408 0 0 0-326.760273-588.504781z" fill="#FF9019" p-id="2193"></path><path d="M374.120899 463.517575a25.221633 25.221633 0 1 0 50.443267 0 25.221633 25.221633 0 1 0-50.443267 0Z" fill="" p-id="2194"></path><path d="M581.498774 463.517575a25.221633 25.221633 0 1 0 50.443267 0 25.221633 25.221633 0 1 0-50.443267 0Z" fill="" p-id="2195"></path><path d="M446.422915 563.283147h128.910571a64.455286 64.455286 0 0 1-128.910571 0z" fill="#FF8472" p-id="2196"></path><path d="M510.8782 636.145644a75.6649 75.6649 0 0 1-75.6649-72.302016 11.209615 11.209615 0 0 1 11.209615-11.770096h128.910571a11.209615 11.209615 0 0 1 11.209614 11.770096 75.6649 75.6649 0 0 1-75.6649 72.302016z m-51.564228-61.652882a53.245671 53.245671 0 0 0 103.128457 0z" fill="" p-id="2197"></path><path d="M643.712136 568.327474a29.144999 29.144999 0 1 0 58.289998 0 29.144999 29.144999 0 1 0-58.289998 0Z" fill="#FF9218" p-id="2198"></path><path d="M485.096086 879.954767A360.389118 360.389118 0 0 1 124.706968 520.12613a356.465753 356.465753 0 0 1 33.068364-150.76932 22.564955 22.564955 0 1 1 40.915094 19.056345A312.187774 312.187774 0 0 0 169.545427 520.12613a315.550659 315.550659 0 0 0 543.105841 218.027009 22.41923 22.41923 0 0 1 32.507883 30.826441A357.026234 357.026234 0 0 1 485.096086 879.954767z m284.163737-155.813646a22.41923 22.41923 0 0 1-19.056345-34.749806 313.308736 313.308736 0 0 0 34.189325-71.741536 22.41923 22.41923 0 0 1 42.596536 14.012019 358.707676 358.707676 0 0 1-38.673171 81.830189 22.41923 22.41923 0 0 1-19.056345 10.649134z m53.245671-182.156242a22.41923 22.41923 0 0 1-22.41923-22.41923 315.550659 315.550659 0 0 0-314.990178-314.429697l-30.26596 1.681442a22.531326 22.531326 0 1 1-4.483846-44.838459l34.749806-1.681442a360.389118 360.389118 0 0 1 360.389118 359.828637 22.41923 22.41923 0 0 1-22.97971 22.41923zM227.274944 323.95787a22.41923 22.41923 0 0 1-16.814422-36.991729 362.631041 362.631041 0 0 1 65.015766-59.97144 22.475278 22.475278 0 0 1 26.342595 36.431248 317.232101 317.232101 0 0 0-57.169036 52.68519 22.41923 22.41923 0 0 1-17.374903 7.846731z m121.06384-90.2374a22.41923 22.41923 0 0 1-8.967691-43.157017l30.82644-11.209615a22.508907 22.508907 0 0 1 14.5725 42.596536l-27.463557 10.088654a22.41923 22.41923 0 0 1-8.967692 1.681442z" fill="" p-id="2199"></path><path d="M272.673884 568.327474a29.144999 29.144999 0 1 0 58.289997 0 29.144999 29.144999 0 1 0-58.289997 0Z" fill="#FF9218" p-id="2200"></path><path d="M555.156179 1023.998319a16.814422 16.814422 0 0 1-16.814422-14.012019l-8.967692-50.443267a16.814422 16.814422 0 0 1 33.068364-5.604807l8.967691 50.443267a16.814422 16.814422 0 0 1-13.451537 19.616826z m-334.607004-83.511631a16.814422 16.814422 0 0 1-14.572499-25.221634l25.782114-44.838459a16.825632 16.825632 0 1 1 29.144998 16.814422l-25.782114 44.83846a16.814422 16.814422 0 0 1-14.572499 8.407211z m644.552855-67.257689a16.814422 16.814422 0 0 1-10.649134-3.923366l-39.233652-33.068364a16.898494 16.898494 0 1 1 21.858749-25.782114l39.233652 33.068364a16.814422 16.814422 0 0 1-10.649134 29.70548zM18.215626 661.367277a16.814422 16.814422 0 0 1-5.604807-32.507883l48.201344-17.374903a16.814422 16.814422 0 0 1 11.770096 31.386922L23.820434 660.246316z m936.002842-103.128456a16.814422 16.814422 0 0 1 0-33.628845h51.564229a16.814422 16.814422 0 0 1 0 33.628845H954.218468zM91.078123 334.607004l-5.604807-1.120962-48.761825-17.374903a16.814422 16.814422 0 0 1 11.209615-31.386921l48.761825 17.374903a16.814422 16.814422 0 0 1-5.604808 32.507883z m780.189195-75.10442a16.814422 16.814422 0 0 1-10.649134-29.705479l39.233652-33.068364a16.898494 16.898494 0 0 1 21.858749 25.782114l-39.233652 33.068364a16.814422 16.814422 0 0 1-11.209615 3.923365z m-563.283147-145.724993a16.814422 16.814422 0 0 1-14.572499-8.407211l-25.782115-44.277979a16.825632 16.825632 0 1 1 29.144999-16.814422l25.782114 44.277978a16.814422 16.814422 0 0 1-14.572499 25.221634z m308.264409-29.705479h-2.802404a16.814422 16.814422 0 0 1-13.451538-19.616826l8.967692-50.443267a16.814422 16.814422 0 0 1 33.068364 5.604807l-8.967692 50.443267a16.814422 16.814422 0 0 1-16.814422 14.012019z" fill="" p-id="2201"></path></svg>