<?xml version="1.0" standalone="no"?><!DOCTYPE svg PUBLIC "-//W3C//DTD SVG 1.1//EN" "http://www.w3.org/Graphics/SVG/1.1/DTD/svg11.dtd"><svg t="1740555354361" class="icon" viewBox="0 0 1024 1024" version="1.1" xmlns="http://www.w3.org/2000/svg" p-id="4507" xmlns:xlink="http://www.w3.org/1999/xlink" width="200" height="200"><path d="M633.088 310.613333c-8.96 0-17.749333 0.853333-26.282667 2.56-30.976-42.922667-81.408-70.826667-138.410666-70.826666-83.797333 0-153.429333 60.330667-167.936 139.946666-33.194667 8.789333-59.733333 33.792-70.741334 65.962667-4.010667-0.682667-8.106667-1.109333-12.288-1.109333-37.717333 0-68.266667 30.549333-68.266666 68.266666s30.549333 68.266667 68.266666 68.266667h395.349334l0.085333-1.450667c6.570667 0.938667 13.226667 1.450667 20.053333 1.450667 75.434667 0 136.533333-61.098667 136.533334-136.533333s-60.928-136.533333-136.362667-136.533334z" fill="#E3F7FF" p-id="4508"></path><path d="M633.088 300.373333c-7.594667 0-15.018667 0.597333-22.357333 1.706667-28.501333-36.352-69.12-60.16-115.029334-67.242667-47.786667-7.338667-95.488 4.437333-134.485333 33.024-35.584 26.112-59.904 63.573333-69.461333 106.24-21.674667 7.082667-41.045333 20.821333-54.869334 39.082667-5.632 7.424-10.325333 15.445333-13.909333 23.893333-1.877333-0.170667-3.669333-0.170667-5.546667-0.170666-43.264 0-78.506667 35.242667-78.506666 78.506666s35.242667 78.506667 78.506666 78.506667c5.632 0 10.24-4.608 10.24-10.24s-4.608-10.24-10.24-10.24c-32 0-58.026667-26.026667-58.026666-58.026667 0-31.658667 25.514667-57.514667 57.173333-58.026666-1.706667 7.765333-2.56 15.786667-2.56 23.893333 0 5.632 4.608 10.24 10.24 10.24s10.24-4.608 10.24-10.24c0-20.309333 6.485333-39.509333 18.688-55.637333 9.130667-12.032 21.248-21.76 34.986667-28.074667-4.010667 43.946667 8.021333 87.381333 34.389333 123.221333 2.048 2.730667 5.12 4.181333 8.277333 4.181334 2.133333 0 4.266667-0.682667 6.058667-1.962667 4.522667-3.328 5.546667-9.728 2.218667-14.336-25.344-34.56-35.754667-76.885333-29.269334-119.210667 6.485333-42.325333 29.098667-79.701333 63.573334-105.045333 34.56-25.344 76.885333-35.754667 119.210666-29.269333 37.461333 5.717333 70.997333 24.064 95.829334 52.224-59.221333 18.944-102.144 74.410667-102.144 139.861333 0 5.632 4.608 10.24 10.24 10.24s10.24-4.608 10.24-10.24c0-69.632 56.661333-126.293333 126.293333-126.293333s126.293333 56.661333 126.293333 126.293333c0 5.632 4.608 10.24 10.24 10.24s10.24-4.608 10.24-10.24c0-80.981333-65.792-146.858667-146.773333-146.858667z" fill="#797E7F" p-id="4509"></path><path d="M492.032 501.333333l345.6 0.853334c5.632 0 10.24-4.608 10.24-10.24s-4.522667-10.24-10.24-10.24l-345.6-0.853334c-5.632 0-10.24 4.608-10.24 10.24 0.085333 5.632 4.608 10.24 10.24 10.24zM837.717333 635.818667l-345.6-0.853334c-5.632 0-10.24 4.608-10.24 10.24s4.522667 10.24 10.24 10.24l345.6 0.853334c5.632 0 10.24-4.608 10.24-10.24s-4.608-10.24-10.24-10.24zM539.136 558.336c-3.584-6.144-10.154667-10.24-17.749333-10.24-11.349333 0-20.48 9.130667-20.48 20.48s9.130667 20.48 20.48 20.48c7.594667 0 14.165333-4.096 17.749333-10.24H589.653333c5.632 0 10.24-4.608 10.24-10.24s-4.608-10.24-10.24-10.24h-50.517333zM652.544 558.336c-3.584-6.144-10.154667-10.24-17.749333-10.24-11.349333 0-20.48 9.130667-20.48 20.48s9.130667 20.48 20.48 20.48c7.594667 0 14.165333-4.096 17.749333-10.24H703.146667c5.632 0 10.24-4.608 10.24-10.24s-4.608-10.24-10.24-10.24h-50.602667zM766.037333 558.336c-3.584-6.144-10.154667-10.24-17.749333-10.24-11.349333 0-20.48 9.130667-20.48 20.48s9.130667 20.48 20.48 20.48c7.594667 0 14.165333-4.096 17.749333-10.24h50.517334c5.632 0 10.24-4.608 10.24-10.24s-4.608-10.24-10.24-10.24h-50.517334z" fill="#797E7F" p-id="4510"></path></svg>