<?xml version="1.0" standalone="no"?><!DOCTYPE svg PUBLIC "-//W3C//DTD SVG 1.1//EN" "http://www.w3.org/Graphics/SVG/1.1/DTD/svg11.dtd"><svg t="1740555392273" class="icon" viewBox="0 0 1024 1024" version="1.1" xmlns="http://www.w3.org/2000/svg" p-id="5837" xmlns:xlink="http://www.w3.org/1999/xlink" width="200" height="200"><path d="M784.323298 297.627899c0.024271-1.286366 0.093039-2.564642 0.093039-3.851008 0-136.310309-110.510174-246.840709-246.828574-246.840709-117.358658 0-215.494637 81.931003-240.570686 191.676639a154.367977 154.367977 0 0 0-11.658198-0.505648c-81.077471 0-146.803497 65.730071-146.803497 146.803497 0 17.390213 3.037927 34.044205 8.583865 49.52105a196.328592 196.328592 0 0 0-36.188149 113.827219c0 107.460111 85.968089 194.807605 192.886147 197.141672v0.11731h379.227197c130.007924 0 235.380725-105.393026 235.380725-235.388815 0.012136-93.714602-54.808095-174.650491-134.121869-212.501207z" fill="#A1A1AD" p-id="5838"></path><path d="M796.337472 297.324511a235.833784 235.833784 0 0 1 1.399631 25.448205c0 1.229734-0.072813 2.435196-0.093039 3.640658 58.068507 27.766091 102.262059 79.973138 119.389336 143.308465-10.970518-74.584963-56.952039-137.766573-120.695928-172.397328z m-257.653466-256.286196c-117.354613 0-215.502728 81.931003-240.566641 191.676638a156.520011 156.520011 0 0 0-11.658198-0.505647c-81.077471 0-146.803497 65.730071-146.803497 146.803497 0 17.382123 3.037927 34.044205 8.583864 49.525095a196.312411 196.312411 0 0 0-36.188148 113.823173c0 95.522796 67.938738 175.095461 158.121901 193.250213-65.313418-29.214264-110.845924-94.810845-110.845924-171.115007a186.810291 186.810291 0 0 1 34.307141-108.12352 139.376553 139.376553 0 0 1-8.13485-47.037312c0-77.012068 62.303807-139.445321 139.162159-139.445321 3.721562 0 7.394582 0.194168 11.051422 0.481376 23.757321-104.244196 116.800423-182.0653 228.042774-182.065299 96.230701 0 178.889836 58.23436 214.815048 141.459819-26.135885-108.261056-123.592275-188.727705-239.887051-188.727705z" fill="#FFFFFF" opacity=".15" p-id="5839"></path><path d="M683.064442 761.706717H303.845335c-0.817126 0-1.614025-0.060678-2.398789-0.177988-55.249019-1.72729-106.918058-24.384323-145.695119-63.946149-39.319115-40.116014-60.972944-93.144232-60.972944-149.323641 0-41.61273 11.904954-81.655931 34.513445-116.331183a162.608001 162.608001 0 0 1-6.909161-47.017086c0-89.608748 72.703956-162.567549 162.219664-162.984202C299.36328 170.002584 330.240111 123.199893 372.532431 89.034333c46.519529-37.583734 105.142225-58.278856 165.059378-58.278857 142.980805 0 259.672009 114.696932 262.936466 256.909154 81.805602 43.307659 134.105688 129.514413 134.093552 222.464476 0.004045 138.72528-112.848286 251.577611-251.557385 251.577611z m-377.257196-32.361411h377.257196c120.865826 0 219.200019-98.338238 219.200019-219.20811 0.012136-84.010224-49.019448-161.689746-124.911002-197.902165a16.156435 16.156435 0 0 1-9.202776-14.90243l0.048542-1.779877c0.016181-0.590596 0.044497-1.181192 0.044497-1.771788 0-127.180346-103.467522-230.660004-230.651913-230.660003-108.265101 0-200.701427 73.650527-224.786408 179.09614a16.204977 16.204977 0 0 1-17.014012 12.531956 135.278789 135.278789 0 0 0-10.416329-0.457105c-72.024366 0-130.622791 58.598425-130.622792 130.622792a130.25468 130.25468 0 0 0 7.637294 44.068151 16.192841 16.192841 0 0 1-2.022589 14.805346 179.897085 179.897085 0 0 0-33.214943 104.474771c0 97.658649 79.427039 178.837249 177.061416 180.965011 0.529918 0.016181 1.063881 0.052587 1.5938 0.117311z" fill="#6E6E96" p-id="5840"></path><path d="M788.813444 295.111799c0.024271-1.286366 0.097084-2.552506 0.097084-3.846962 0-112.674344-75.547715-207.655086-178.723984-237.233416 74.633505 39.404063 125.525869 117.746995 125.525869 208.011061l-0.084948 43.291478c75.555805 36.054657 127.770942 73.533217 127.770941 162.814305 0 123.834985-100.377007 224.236264-224.228173 224.236264h-361.234253v-0.10922c-63.484998-1.387496-119.203258-34.242418-152.183581-83.58548 25.836542 76.736996 97.553474 132.366262 182.570946 134.227043v0.113265h379.223153c130.003879 0 235.380725-105.388981 235.380724-235.380724 0.020226-93.746963-54.80405-174.682853-134.113778-212.537614z" fill="#6E6E96" opacity=".35" p-id="5841"></path><path d="M242.322247 1015.909647a16.180706 16.180706 0 0 1-14.032717-24.206335l80.215848-140.379757a16.180706 16.180706 0 0 1 28.101841 16.055305l-80.215848 140.379757a16.196886 16.196886 0 0 1-14.069124 8.15103z" fill="#6E6E96" p-id="5842"></path><path d="M632.139717 1015.909647a16.16857 16.16857 0 0 1-14.024627-24.206335l80.223938-140.379757a16.17666 16.17666 0 0 1 22.074528-6.019223 16.172615 16.172615 0 0 1 6.019223 22.074528l-80.223939 140.379757a16.209022 16.209022 0 0 1-14.069123 8.15103z" fill="#6E6E96" p-id="5843"></path><path d="M583.338708 479.418127l-213.447778 265.517288h147.766249l-82.088765 206.518391 280.197234-333.278038h-165.269727z" fill="#FFFF45" p-id="5844"></path><path d="M435.560324 967.634512a16.180706 16.180706 0 0 1-15.02783-22.155431l73.282415-184.36296H369.89093a16.180706 16.180706 0 0 1-12.608814-26.313872l213.451823-265.517289a16.180706 16.180706 0 0 1 28.356686 13.866864l-28.126111 118.847283H715.773739a16.184751 16.184751 0 1 1 12.38633 26.597035l-280.201279 333.286129a16.229248 16.229248 0 0 1-12.398466 5.752241z m-31.900261-238.879802h113.997116a16.180706 16.180706 0 0 1 15.035921 22.163521l-45.140124 113.568328 193.476743-230.130086h-130.533798a16.184751 16.184751 0 0 1-15.751917-19.906313l16.362739-69.115884-147.44668 183.420434z" fill="#6E6E96" p-id="5845"></path></svg>