<?xml version="1.0" standalone="no"?><!DOCTYPE svg PUBLIC "-//W3C//DTD SVG 1.1//EN" "http://www.w3.org/Graphics/SVG/1.1/DTD/svg11.dtd"><svg t="1740555440983" class="icon" viewBox="0 0 1024 1024" version="1.1" xmlns="http://www.w3.org/2000/svg" p-id="7739" xmlns:xlink="http://www.w3.org/1999/xlink" width="200" height="200"><path d="M305.9 783.4c-9.8-2.2-16-11.9-13.8-21.8l26.7-119-123 71c-2.9 1.7-6 2.4-9.1 2.4-6.3 0-12.4-3.3-15.8-9.1-5-8.7-2-19.9 6.7-24.9l121.6-70-114-35.6c-9.6-3-15-13.2-12-22.8 0.9-2.9 2.5-5.3 4.5-7.3l-18.9-5.9c-6.6-2.1-13.5-1.4-19.6 1.8-6.1 3.2-10.6 8.5-12.6 15.1-2.1 6.6-1.4 13.5 1.8 19.6 3.2 6.1 8.6 10.6 15.1 12.6L260 625.8l-126.1 72.8c-5.9 3.4-10.2 9-12 15.6-1.8 6.6-0.9 13.6 2.6 19.5 6.8 11.8 23.2 16.3 35.1 9.4l127.7-73.7L260 791.2c-1.5 6.7-0.3 13.6 3.4 19.4 3.7 5.8 9.4 9.8 16 11.3 1.8 0.4 3.7 0.6 5.7 0.6 11.9 0 22.5-8.4 25.1-20.1l4.4-19.4c-1.5 0.4-3 0.8-4.6 0.8-1.4 0.1-2.7-0.1-4.1-0.4zM718.9 238.5c9.8 2.2 16 11.9 13.8 21.8l-26.2 116.5 121.1-69.9c8.7-5 19.9-2 24.9 6.7s2 19.9-6.7 24.9l-122.5 70.7 116.4 36.4c9.6 3 15 13.2 12 22.8-0.9 2.9-2.6 5.2-4.6 7.2l19 6c13.5 4.2 28.1-3.6 32.2-16.9 4.2-13.5-3.3-28-16.9-32.2l-119.2-37.2 127.2-73.4c5.9-3.4 10.2-9 12-15.6 1.8-6.6 0.9-13.6-2.6-19.5-3.4-5.9-9-10.2-15.6-12-6.6-1.8-13.5-0.9-19.5 2.6l-125.5 72.5 26.7-119.1c1.5-6.7 0.3-13.6-3.4-19.4-3.7-5.8-9.4-9.8-16.1-11.3-6.7-1.5-13.6-0.3-19.4 3.4-5.8 3.7-9.8 9.4-11.3 16.1l-4.3 19.3c2.7-0.9 5.5-1 8.5-0.4zM890.4 698.6l-125.5-72.5 116.6-36.4c6.5-2.1 11.9-6.5 15.1-12.6 3.2-6.1 3.8-13 1.8-19.6-4.2-13.5-18.7-21.1-32.2-16.9l-18.9 5.9c2 2 3.6 4.4 4.5 7.3 3 9.6-2.3 19.8-12 22.8l-114 35.6 121.1 69.9c8.7 5 11.7 16.2 6.7 24.9-3.4 5.8-9.5 9.1-15.8 9.1-3.1 0-6.2-0.8-9.1-2.4L706 643l26.7 119c2.2 9.8-4 19.6-13.8 21.8-1.3 0.3-2.7 0.4-4 0.4-1.6 0-3.1-0.4-4.6-0.8l4.4 19.4c3.1 13.6 16.4 22.5 30.7 19.5 6.7-1.5 12.4-5.5 16.1-11.3 3.7-5.8 4.9-12.7 3.4-19.4l-27.4-121.9 127.2 73.4c11.9 6.9 28.3 2.4 35.1-9.4 7-12.2 2.8-28-9.4-35.1zM173.2 468.7c-3-9.6 2.4-19.8 12-22.8l116.4-36.4-123-71c-8.7-5-11.7-16.2-6.7-24.9 5-8.7 16.2-11.7 24.9-6.7l121.6 70.2-26.2-116.5c-2.2-9.8 4-19.6 13.8-21.8 3-0.7 5.9-0.5 8.6 0.2l-4.3-19.3c-1.5-6.7-5.5-12.4-11.3-16.1-5.8-3.7-12.7-4.9-19.4-3.4-6.7 1.5-12.4 5.5-16.1 11.3-3.7 5.8-4.9 12.7-3.4 19.4L286.8 350l-126.1-72.8c-12.3-7.1-28-2.9-35.1 9.4-3.4 5.9-4.3 12.9-2.6 19.5 1.8 6.6 6 12.2 12 15.6l127.7 73.8-119.2 37.2c-13.5 4.2-21.1 18.7-16.9 32.2 4.1 13.3 18.8 21.1 32.2 16.9l19-5.9c-2-1.9-3.7-4.3-4.6-7.2zM493.9 696.2v-70.1c-2.5-0.4-5-0.8-7.5-1.4v78.4l7.5-6.9zM421.1 583.7L361.7 618l-2.2 9.8 66.5-38.4c-1.7-1.9-3.3-3.8-4.9-5.7zM342.1 587.2l61.1-35.3c-0.9-2.4-1.8-4.8-2.5-7.3l-68.5 39.5 9.9 3.1zM361.2 401.9l61.1 35.3c1.7-2 3.5-3.9 5.2-5.8l-68.6-39.6 2.3 10.1zM621.1 552l61.6 35.6 9.9-3.1-69-39.8c-0.7 2.4-1.6 4.8-2.5 7.3zM493.9 396.4v-69.7l-7.5-6.9v78c2.5-0.6 5-1 7.5-1.4zM644.9 826.5c-3.6 3.9-8.5 5.9-13.4 5.9-4.4 0-8.8-1.6-12.3-4.8l-88.7-81.7v140.7c0 10.1-8.2 18.2-18.2 18.2-10.1 0-18.2-8.2-18.2-18.2V745.8l-88.8 81.8c-7.4 6.8-18.9 6.3-25.7-1.1-2-2.2-3.3-4.8-4.1-7.5l-14.6 13.4c-10.4 9.6-11.1 25.9-1.5 36.3 9.6 10.4 25.9 11.1 36.3 1.5l90.9-83.7v146c0 14.2 11.5 25.7 25.7 25.7s25.7-11.5 25.7-25.7v-146l90.8 83.6c10 9.3 27.1 8.5 36.3-1.5 9.6-10.4 8.9-26.7-1.5-36.3L648.9 819c-0.7 2.7-2 5.3-4 7.5zM680.4 434l-60 34.6c0.9 2.3 1.8 4.6 2.6 7l67-38.7-9.6-2.9zM663.1 618.3l-59.9-34.6c-1.6 2-3.2 3.8-4.9 5.7l67 38.7-2.2-9.8zM530.4 626.1v70.2l7.5 6.9v-78.5c-2.5 0.6-5 1-7.5 1.4zM403.9 468.6l-59.4-34.3-9.6 3 66.4 38.4c0.8-2.5 1.7-4.8 2.6-7.1zM379.4 196.4c6.8-7.4 18.3-7.9 25.7-1.1l88.8 81.8V136c0-10.1 8.2-18.2 18.2-18.2 10.1 0 18.2 8.2 18.2 18.2v141.1l88.7-81.7c7.4-6.8 18.9-6.3 25.7 1.1 2 2.2 3.4 4.8 4.1 7.6l14.6-13.4c10.4-9.6 11.1-25.9 1.5-36.3-4.6-5-11-8-17.8-8.3-7.1-0.2-13.4 2.1-18.5 6.8l-90.8 83.7V89.9c0-14.2-11.5-25.7-25.7-25.7s-25.7 11.5-25.7 25.7v146.5l-90.9-83.7c-5-4.7-11.4-7.2-18.5-6.8-6.9 0.3-13.2 3.2-17.9 8.3-9.6 10.4-8.9 26.7 1.5 36.3l14.6 13.4c0.9-2.7 2.2-5.3 4.2-7.5zM602 437.2l61.6-35.6 2.3-10.1-69.1 39.9c1.7 1.9 3.5 3.8 5.2 5.8zM530.4 326.6v69.8c2.5 0.4 5 0.8 7.5 1.4v-78l-7.5 6.8z" fill="#FFD524" p-id="7740"></path><path d="M718.9 783.7c9.8-2.2 16-11.9 13.8-21.8L706 643l122.5 70.7c2.9 1.7 6 2.4 9.1 2.4 6.3 0 12.4-3.3 15.8-9.1 5-8.7 2-19.9-6.7-24.9l-121.1-69.9 114-35.6c9.6-3 15-13.2 12-22.8-0.9-2.9-2.5-5.3-4.5-7.3-4.6-4.7-11.6-6.8-18.4-4.7l-136.2 42.5-9.9 3.1-61.5-35.4c0.9-2.4 1.8-4.8 2.5-7.3 3.2-10.6 4.9-21.8 4.9-33.4 0-12.4-2-24.4-5.6-35.6-0.8-2.4-1.7-4.7-2.6-7l60-34.6 9.6 3 138.8 43.4c1.8 0.6 3.6 0.8 5.4 0.8 4.9 0 9.4-2.2 12.8-5.6 2-2 3.7-4.3 4.6-7.2 3-9.6-2.4-19.8-12-22.8l-116.4-36.4 122.5-70.7c8.7-5 11.7-16.2 6.7-24.9-5-8.7-16.2-11.7-24.9-6.7l-121.1 69.9 26.2-116.5c2.2-9.8-4-19.6-13.8-21.8-2.9-0.7-5.8-0.5-8.5 0.2-6.4 1.7-11.7 6.7-13.2 13.6l-31.2 139.2-2.3 10.1-61.5 35.5c-1.7-2-3.5-3.9-5.2-5.8-15.6-16.5-35.9-28.5-58.9-33.7-2.5-0.6-5-1-7.5-1.4v-69.8l7.5-6.9L643.8 222c5.2-4.8 6.9-11.8 5.2-18.2-0.7-2.7-2.1-5.3-4.1-7.6-6.8-7.4-18.3-7.9-25.7-1.1l-88.7 81.7V136c0-10.1-8.2-18.2-18.2-18.2-10.1 0-18.2 8.2-18.2 18.2v141.2l-88.8-81.8c-7.4-6.8-18.9-6.3-25.7 1.1-2 2.2-3.4 4.8-4.1 7.6-1.7 6.4 0 13.4 5.2 18.2l106 97.6 7.5 6.9v69.7c-2.5 0.4-5 0.8-7.5 1.4-23 5.2-43.3 17.1-58.9 33.7-1.8 1.9-3.6 3.8-5.2 5.8l-61.1-35.3-2.3-10.1L328 252.8c-1.5-6.9-6.8-11.9-13.2-13.6-2.7-0.7-5.7-0.9-8.6-0.2-9.8 2.2-16 11.9-13.8 21.8l26.2 116.5L197 307.1c-8.7-5-19.9-2-24.9 6.7s-2 19.9 6.7 24.9l123 71-116.4 36.4c-9.6 3-15 13.2-12 22.8 0.9 2.9 2.6 5.3 4.6 7.3 3.4 3.4 7.9 5.5 12.7 5.5 1.8 0 3.6-0.3 5.4-0.8l138.8-43.4 9.6-3 59.4 34.3c-0.9 2.3-1.8 4.6-2.6 7-3.6 11.2-5.6 23.2-5.6 35.6 0 11.6 1.8 22.8 4.9 33.4 0.7 2.5 1.6 4.9 2.5 7.3L342 587.4l-9.9-3.1L196 541.6c-6.7-2.1-13.7-0.1-18.3 4.6-2 2-3.6 4.5-4.5 7.3-3 9.6 2.4 19.8 12 22.8l114 35.6-121.6 70.2c-8.7 5-11.7 16.2-6.7 24.9 3.4 5.8 9.5 9.1 15.8 9.1 3.1 0 6.2-0.8 9.1-2.4l123-71-26.7 119c-2.2 9.8 4 19.6 13.8 21.8 1.3 0.3 2.7 0.4 4 0.4 1.6 0 3.1-0.4 4.6-0.8 6.3-1.7 11.6-6.6 13.1-13.4l31.8-141.9 2.2-9.8 59.4-34.3c1.6 2 3.2 3.8 4.9 5.7 15.8 17.4 36.7 30 60.5 35.4 2.5 0.6 5 1 7.5 1.4v70.1l-7.5 6.9-106 97.6c-5.2 4.8-6.9 11.9-5.1 18.2 0.7 2.7 2 5.3 4.1 7.5 6.8 7.4 18.3 7.9 25.7 1.1l88.8-81.8v140.7c0 10.1 8.2 18.2 18.2 18.2 10.1 0 18.2-8.2 18.2-18.2V745.8l88.7 81.7c3.5 3.2 7.9 4.8 12.3 4.8 4.9 0 9.8-2 13.4-5.9 2-2.2 3.3-4.8 4.1-7.5 1.7-6.4 0-13.4-5.1-18.2l-105.9-97.6-7.5-6.9V626c2.5-0.4 5-0.8 7.5-1.4 23.7-5.4 44.6-18 60.4-35.4 1.7-1.9 3.3-3.7 4.9-5.7l59.9 34.6 2.2 9.8L697.1 770c1.5 6.9 6.8 11.8 13.2 13.5 1.5 0.4 3 0.8 4.6 0.8 1.3-0.1 2.6-0.3 4-0.6zM512.1 592.2c-44.7 0-80.9-36.2-80.9-80.9s36.2-80.9 80.9-80.9 80.9 36.2 80.9 80.9c0.1 44.6-36.2 80.9-80.9 80.9z" fill="#6B400D" p-id="7741"></path><path d="M433.378096 529.769796a80.9 80.9 0 1 0 157.469432-37.183572 80.9 80.9 0 1 0-157.469432 37.183572Z" fill="#FFD524" p-id="7742"></path></svg>