<svg t="1736345510875" class="icon" viewBox="0 0 1024 1024" version="1.1" xmlns="http://www.w3.org/2000/svg" p-id="18846" width="200" height="200"><path d="M654.283945 626.727169H346.100841a213.915331 213.915331 0 0 1-87.016406-408.666335 213.915331 213.915331 0 0 1 116.539829-160.048032 210.289648 210.289648 0 0 1 93.231864-21.754102 212.361467 212.361467 0 0 1 207.181918 166.781445 209.771693 209.771693 0 0 1 71.477762 27.451604 213.915331 213.915331 0 0 1 102.55505 182.838043q0 10.877051-1.035909 21.236147h2.589774a96.339592 96.339592 0 0 1 0 192.679185h-130.524609" fill="#D2F7FF" p-id="18847"></path><path d="M851.106768 619.475802a97.893457 97.893457 0 0 0-73.031627-162.637807h-2.589774q1.03591-10.877051 1.03591-21.754101A217.541015 217.541015 0 0 0 672.412363 249.138122a214.433286 214.433286 0 0 0-72.513672-27.969559 215.98715 215.98715 0 0 0-274.516042-160.048032 214.951241 214.951241 0 0 1 327.347432 132.596428 213.397376 213.397376 0 0 1 71.995716 27.451604 215.469195 215.469195 0 0 1 103.59096 184.391908q0 10.877051-1.03591 21.236146h2.589774a97.375502 97.375502 0 0 1 20.718192 192.16123z" fill="#9CEDFF" p-id="18848"></path><path d="M882.184056 598.75761a97.893457 97.893457 0 0 0-73.031627-162.637806h-2.589774q1.03591-10.877051 1.03591-21.754102A217.541015 217.541015 0 0 0 703.489651 228.41993a214.433286 214.433286 0 0 0-72.513672-27.969559A215.98715 215.98715 0 0 0 356.459937 40.402339a214.951241 214.951241 0 0 1 327.347431 132.596428 213.397376 213.397376 0 0 1 71.995717 27.451604 215.469195 215.469195 0 0 1 103.590959 184.391908q0 10.877051-1.035909 21.236146h2.589774a97.375502 97.375502 0 0 1 20.718192 192.16123z" fill="#32B7FF" p-id="18849"></path><path d="M813.814022 637.086265h-52.831389a20.718192 20.718192 0 0 1 0-41.436384h52.831389a76.398333 76.398333 0 0 0 0-152.796665h-2.071819a20.718192 20.718192 0 0 1-21.236147-22.790011c0.517955-6.215458 1.03591-12.94887 1.03591-19.164328a193.715094 193.715094 0 0 0-16.574553-79.247084 20.718192 20.718192 0 0 1 37.8107-16.574553 235.151478 235.151478 0 0 1 20.200237 95.821637v2.07182a117.575739 117.575739 0 0 1-19.164328 234.115568z m-454.764311 0h-56.975028a236.187387 236.187387 0 0 1-106.698688-446.99499 236.705342 236.705342 0 0 1 42.472293-95.303683 20.718192 20.718192 0 0 1 33.149107 24.861831 195.268958 195.268958 0 0 0-36.256835 87.53436 20.718192 20.718192 0 0 1-11.912961 15.538644 194.751004 194.751004 0 0 0 79.247084 372.927454h56.975028a20.718192 20.718192 0 0 1 0 41.436384z m387.430188-370.855635a20.718192 20.718192 0 0 1-14.502735-5.697503 195.268958 195.268958 0 0 0-34.185016-26.415694 20.718192 20.718192 0 0 1 21.754101-35.220926 236.705342 236.705342 0 0 1 41.954339 32.113197 20.718192 20.718192 0 0 1-14.502734 35.738881zM636.155527 209.773557a20.718192 20.718192 0 0 1-20.200237-16.056598A195.786913 195.786913 0 0 0 426.901789 41.438248a191.643275 191.643275 0 0 0-85.462541 19.682283 20.733731 20.733731 0 0 1-18.128418-37.292746 233.079659 233.079659 0 0 1 103.590959-23.82592A237.223297 237.223297 0 0 1 656.873719 184.393772a20.718192 20.718192 0 0 1-15.538644 24.861831z" fill="" p-id="18850"></path><path d="M327.972423 303.005421m-23.307966 0a23.307966 23.307966 0 1 0 46.615932 0 23.307966 23.307966 0 1 0-46.615932 0Z" fill="" p-id="18851"></path><path d="M545.513438 303.005421m-23.307966 0a23.307966 23.307966 0 1 0 46.615931 0 23.307966 23.307966 0 1 0-46.615931 0Z" fill="" p-id="18852"></path><path d="M436.74293 422.135024m-59.564801 0a59.564802 59.564802 0 1 0 119.129603 0 59.564802 59.564802 0 1 0-119.129603 0Z" fill="#FF8472" p-id="18853"></path><path d="M436.74293 492.058922A69.923898 69.923898 0 1 1 506.666828 422.135024 69.923898 69.923898 0 0 1 436.74293 492.058922z m0-119.129604a49.205706 49.205706 0 1 0 49.205706 49.205706 49.205706 49.205706 0 0 0-49.205706-49.205706z" fill="" p-id="18854"></path><path d="M247.689429 419.54525m-31.077287 0a31.077288 31.077288 0 1 0 62.154575 0 31.077288 31.077288 0 1 0-62.154575 0Z" fill="#FAD700" p-id="18855"></path><path d="M625.796431 419.54525m-31.077288 0a31.077288 31.077288 0 1 0 62.154576 0 31.077288 31.077288 0 1 0-62.154576 0Z" fill="#FAD700" p-id="18856"></path><path d="M470.409992 1023.998498a20.718192 20.718192 0 0 1-15.020689-34.702971l22.272056-24.343876a20.718192 20.718192 0 0 1 30.559333 27.969559l-22.272056 24.343876a20.718192 20.718192 0 0 1-15.538644 6.733412z m53.867299-58.528892a20.718192 20.718192 0 0 1-15.020689-34.702971l59.046847-64.226395a20.718192 20.718192 0 1 1 30.559333 27.969559l-59.564802 64.226395a20.718192 20.718192 0 0 1-15.020689 6.733412zM454.871348 690.953564a20.718192 20.718192 0 0 1-14.502734-35.220927l32.631152-32.631152a20.718192 20.718192 0 0 1 23.825921-3.625683 20.718192 20.718192 0 0 1 3.625683-23.825921l13.98478-13.98478a20.873578 20.873578 0 1 1 29.523423 29.523424l-13.984779 13.984779a20.718192 20.718192 0 0 1-23.825921 3.625684 20.718192 20.718192 0 0 1-3.625684 23.825921l-32.631152 32.631152a20.718192 20.718192 0 0 1-15.020689 5.697503zM548.103212 727.210399a20.718192 20.718192 0 0 1-14.502735-35.220926l74.585491-74.585491a20.873578 20.873578 0 0 1 29.523423 29.523424l-75.103445 74.067536a20.718192 20.718192 0 0 1-14.502734 6.215457zM351.280389 873.791607a20.718192 20.718192 0 0 1-15.020689-34.702972l22.272056-24.343875a20.718192 20.718192 0 0 1 30.559333 27.969559l-22.272056 24.343875a20.718192 20.718192 0 0 1-15.538644 6.733413z m53.867299-58.528892a20.718192 20.718192 0 0 1-15.020689-34.702972l59.046846-64.226394a20.718192 20.718192 0 0 1 30.559333 27.969559l-59.564801 64.226394a20.718192 20.718192 0 0 1-15.020689 6.733413z" fill="#32B7FF" p-id="18857"></path><path d="M444.512252 685.774016a20.718192 20.718192 0 0 1-14.502734-35.220927l32.631152-32.631152a20.718192 20.718192 0 0 1 23.825921-3.625683 20.718192 20.718192 0 0 1 3.625683-23.825921l13.98478-13.98478a20.873578 20.873578 0 1 1 29.523423 29.523424l-13.984779 13.984779a20.718192 20.718192 0 0 1-23.825921 3.625684 20.718192 20.718192 0 0 1-3.625683 23.825921l-32.631153 32.631152a20.718192 20.718192 0 0 1-15.020689 5.697503z" fill="" p-id="18858"></path><path d="M330.562197 1023.998498a20.718192 20.718192 0 0 1-15.020689-34.702971l22.272056-24.343876a20.718192 20.718192 0 0 1 30.559333 27.969559l-22.272056 24.343876a20.718192 20.718192 0 0 1-15.538644 6.733412z m53.867299-58.528892a20.718192 20.718192 0 0 1-15.020689-34.702971l59.046847-64.226395a20.718192 20.718192 0 0 1 30.559333 27.969559l-59.564802 64.226395a20.718192 20.718192 0 0 1-15.020689 6.733412z" fill="#FAD700" p-id="18859"></path><path d="M338.849474 873.791607a20.718192 20.718192 0 0 1-15.020689-34.702972l22.272056-24.343875a20.718192 20.718192 0 0 1 30.559333 27.969559l-22.272056 24.343875a20.718192 20.718192 0 0 1-15.538644 6.733413zM392.716773 815.262715a20.718192 20.718192 0 0 1-15.02069-34.702972l59.046847-64.226394a20.718192 20.718192 0 1 1 30.559333 27.969559l-59.564801 64.226394a20.718192 20.718192 0 0 1-15.020689 6.733413z" fill="" p-id="18860"></path><path d="M527.38502 835.980907a20.718192 20.718192 0 0 1-14.502735-35.220926l17.092509-17.092509a20.873578 20.873578 0 0 1 29.523423 29.523424l-17.092508 17.092508a20.718192 20.718192 0 0 1-15.020689 5.697503z m62.154575-62.154576a20.718192 20.718192 0 0 1-14.502734-35.220926l12.430915-12.430915a20.873578 20.873578 0 0 1 29.523424 29.523423l-12.430916 12.430915a20.718192 20.718192 0 0 1-15.020689 5.697503z" fill="#FAD700" p-id="18861"></path><path d="M315.023553 1023.998498a20.718192 20.718192 0 0 1-15.020689-34.702971l22.272056-24.343876a20.718192 20.718192 0 0 1 30.559333 27.969559l-22.272056 24.343876a20.718192 20.718192 0 0 1-15.538644 6.733412z m53.867299-58.528892a20.718192 20.718192 0 0 1-15.020689-34.702971l59.046847-64.226395a20.718192 20.718192 0 0 1 30.559333 27.969559l-59.564802 64.226395a20.718192 20.718192 0 0 1-15.020689 6.733412z" fill="" p-id="18862"></path><path d="M605.078239 577.003508a20.718192 20.718192 0 0 1-14.502734-35.220926l10.359096-10.359096a20.873578 20.873578 0 0 1 29.523423 29.523424l-10.359096 10.359096a20.718192 20.718192 0 0 1-15.020689 5.697502z m61.118666-61.118666a20.718192 20.718192 0 0 1-14.502734-35.220926l13.466825-13.466825a20.873578 20.873578 0 0 1 29.523423 29.523424l-13.466825 13.466824a20.718192 20.718192 0 0 1-15.020689 5.697503z" fill="#32B7FF" p-id="18863"></path><path d="M460.050896 1023.998498a20.718192 20.718192 0 0 1-15.020689-34.702971l22.272056-24.343876a20.718192 20.718192 0 0 1 30.559333 27.969559l-22.272056 24.343876a20.718192 20.718192 0 0 1-15.538644 6.733412z m53.867299-58.528892a20.718192 20.718192 0 0 1-15.020689-34.702971l59.046847-64.226395a20.718192 20.718192 0 1 1 30.559333 27.969559l-59.564802 64.226395a20.718192 20.718192 0 0 1-15.020689 6.733412zM527.38502 727.210399a20.718192 20.718192 0 0 1-14.502735-35.220926l74.585491-74.585491a20.873578 20.873578 0 0 1 29.523424 29.523424l-75.103446 74.067536a20.718192 20.718192 0 0 1-14.502734 6.215457zM594.719143 577.003508a20.718192 20.718192 0 0 1-14.502734-35.220926l10.359096-10.359096a20.873578 20.873578 0 0 1 29.523423 29.523424l-10.359096 10.359096a20.718192 20.718192 0 0 1-15.020689 5.697502z m61.118666-61.118666a20.718192 20.718192 0 0 1-14.502734-35.220926l13.466825-13.466825a20.873578 20.873578 0 0 1 29.523423 29.523424l-13.466825 13.466824a20.718192 20.718192 0 0 1-15.020689 5.697503zM517.025924 835.980907a20.718192 20.718192 0 0 1-14.502735-35.220926l17.092509-17.092509a20.873578 20.873578 0 0 1 29.523423 29.523424l-17.092508 17.092508a20.718192 20.718192 0 0 1-15.020689 5.697503z m62.154575-62.154576a20.718192 20.718192 0 0 1-14.502734-35.220926l12.430915-12.430915a20.873578 20.873578 0 1 1 29.523424 29.523423l-12.430916 12.430915a20.718192 20.718192 0 0 1-15.020689 5.697503z" fill="" p-id="18864"></path></svg>