<svg t="1736414664604" class="icon" viewBox="0 0 1024 1024" version="1.1" xmlns="http://www.w3.org/2000/svg" p-id="5311" width="200" height="200"><path d="M756.992 418.453333a172.8 172.8 0 0 1 116.821333 163.477334v10.176a172.736 172.736 0 0 1-172.736 172.714666H172.736A172.736 172.736 0 0 1 0 592.106667v-10.176a172.864 172.864 0 0 1 102.528-157.866667 132.117333 132.117333 0 0 1 180.074667-107.093333 264.106667 264.106667 0 0 1 215.253333-110.976c128.213333 0 235.093333 91.306667 259.136 212.458666z m0 0a172.501333 172.501333 0 0 0-55.893333-9.237333v60.949333z m-500.096-46.016a70.421333 70.421333 0 0 1 5.333333 2.069334l24.490667-55.829334a131.456 131.456 0 0 0-4.117333-1.706666z" fill="#0b24f8" opacity=".3" p-id="5312" data-spm-anchor-id="a313x.search_index.0.i0.789b3a81VtoGXZ" class=""></path><path d="M333.418667 819.456a30.890667 30.890667 0 0 1 0 43.712l-73.002667 72.874667a30.997333 30.997333 0 0 1-43.818667 0 30.890667 30.890667 0 0 1 0-43.733334l73.002667-72.853333a30.997333 30.997333 0 0 1 43.818667 0z m258.261333-14.570667a30.890667 30.890667 0 0 1 0 43.712l-102.208 102.016a30.997333 30.997333 0 0 1-43.818667 0 30.890667 30.890667 0 0 1 0-43.733333l102.208-101.994667a30.997333 30.997333 0 0 1 43.818667 0zM845.013333 490.154667a172.970667 172.970667 0 0 1 24.917334 89.728v10.176c0 95.530667-77.013333 173.013333-171.968 173.013333H171.946667C76.992 763.050667 0 685.568 0 590.037333v-10.176a173.162667 173.162667 0 0 1 102.058667-158.122666c7.701333-65.706667 63.232-116.650667 130.602666-116.650667a130.538667 130.538667 0 0 1 48.682667 9.386667 262.464 262.464 0 0 1 314.325333-91.349334 191.210667 191.210667 0 0 1 78.528-16.789333c106.453333 0 192.746667 86.826667 192.746667 193.92a194.133333 194.133333 0 0 1-21.909333 89.877333z m-43.754666-48.597334a135.04 135.04 0 0 0 6.4-41.301333c0-74.154667-59.754667-134.272-133.482667-134.272-2.773333 0-5.546667 0.085333-8.32 0.256a264.704 264.704 0 0 1 87.765333 149.909333c17.28 5.930667 33.322667 14.570667 47.637334 25.386667z m-545.493334-71.509333a70.293333 70.293333 0 0 0-23.125333-3.882667c-39.082667 0-70.762667 31.850667-70.826667 71.146667l2.176 30.912c-1.173333 0.085333-2.346667 0.170667-3.52 0.298667-56.426667 5.802667-99.797333 53.824-99.797333 111.36v10.176c0 61.824 49.813333 111.936 111.274667 111.936h526.016c61.44 0 111.274667-50.133333 111.274666-111.936v-10.176c0-61.824-49.834667-111.936-111.274666-111.936 0-112.426667-90.581333-203.52-202.325334-203.52-81.578667 0-154.176 49.002667-185.898666 123.093333-0.554667 1.28-1.28 2.752-1.92 3.946667l-0.042667 0.149333-52.032-21.568zM789.482667 65.642667c14.101333 5.12 21.376 20.736 16.234666 34.858666l-18.816 51.690667a27.178667 27.178667 0 0 1-51.093333-18.581333l18.816-51.712a27.178667 27.178667 0 0 1 34.858667-16.256z m202.282666 186.154666c6.336 13.696 0.426667 29.930667-13.226666 36.330667l-49.365334 23.210667a27.093333 27.093333 0 0 1-36.117333-13.162667 27.434667 27.434667 0 0 1 13.226667-36.330667l49.344-23.210666a27.093333 27.093333 0 0 1 36.138666 13.162666z m11.456 275.84a27.349333 27.349333 0 0 1-35.050666 16.32l-50.773334-18.474666a27.349333 27.349333 0 1 1 18.688-51.413334l50.773334 18.496c14.208 5.162667 21.525333 20.864 16.362666 35.050667zM514.901333 78.208a27.093333 27.093333 0 0 1 36.117334 13.141333l22.890666 49.493334c6.336 13.696 0.426667 29.930667-13.226666 36.352a27.093333 27.093333 0 0 1-36.117334-13.162667l-22.890666-49.493333a27.434667 27.434667 0 0 1 13.226666-36.330667z" fill="#0b24f8" p-id="5313"></path></svg>