<svg t="1736344970654" class="icon" viewBox="0 0 1324 1024" version="1.1" xmlns="http://www.w3.org/2000/svg" p-id="1807" width="200" height="200"><path d="M1234.682399 199.842767a24.164784 24.164784 0 0 0-28.721572-18.641405L1135.744867 196.183528c5.385295-7.560125 10.701547-15.223814 15.914237-22.887503q9.493308-13.981054 18.261673-28.376361 4.556788-7.456562 8.733843-15.120251l4.177056-8.181505c1.380845-2.830732 2.692647-6.110238 4.00445-9.182618a22.231602 22.231602 0 0 0-28.928699-29.273911l-3.900887 1.622493c-5.523379 1.933183-10.943195 3.935408-16.432053 5.799548s-11.08128 3.452112-16.708223 5.040084-11.253885 3.003337-16.915349 4.280619-11.39197 2.589084-17.26056 3.659239-11.495533 2.140309-17.26056 3.037858-11.564575 1.760577-17.260561 2.485521c-3.866366 0.483296-7.732731 0.897549-11.599096 1.311803a211.441864 211.441864 0 0 0-51.298385-37.489937 222.074369 222.074369 0 0 0-80.641338-23.543405 251.175673 251.175673 0 0 0-81.884098 5.661464 264.63891 264.63891 0 0 0-75.359606 30.551192 251.037589 251.037589 0 0 0-62.759398 52.920878 224.939622 224.939622 0 0 0-53.714863 155.137916c0.241648 7.801773 0.93207 15.465462 1.898661 23.094629-3.762802-0.448775-7.525604-0.828507-11.288406-1.346323-10.736069-1.346324-21.437616-3.037859-32.070121-5.005563s-21.26501-4.108013-31.828473-6.628055a646.787715 646.787715 0 0 1-62.552271-18.054546q-31.069009-10.632505-60.757172-24.164784c-79.881873-36.419782-152.963085-88.443111-217.897313-149.7181a23.40532 23.40532 0 0 0-39.11243 7.456562l-0.586859 1.55345c-2.623605 6.904224-5.143647 13.808448-7.111351 20.919799a208.542089 208.542089 0 0 0-4.93652 21.506658 195.63119 195.63119 0 0 0-2.968816 21.886391c-0.62138 7.318478-0.793986 14.671476-0.724944 22.024475s0.517817 14.636955 1.20824 21.920911 1.795098 14.498871 3.072379 21.713785a288.631089 288.631089 0 0 0 11.219364 42.253852q3.452112 10.356336 7.974379 20.401982c2.899774 6.904224 6.041196 13.359674 9.493308 19.815123s7.111351 12.979941 11.08128 19.193743 8.181506 12.531167 12.703773 18.4688c2.243873 3.003337 4.591309 5.972154 6.904224 8.906449-5.86859 0.759465-11.70266 1.415366-17.605772 1.829619-5.281731 0.379732-10.563463 0.586859-15.603546 0.517817-2.589084 0-5.040084 0-7.38752-0.31069s-4.384182-0.517817-6.628055-0.724944a14.740518 14.740518 0 0 0-21.230489 12.945421v1.173718a199.32495 199.32495 0 0 0 0.517816 22.19708 167.807167 167.807167 0 0 0 3.452112 22.335165 164.562182 164.562182 0 0 0 16.293969 42.80619 190.591107 190.591107 0 0 0 26.822911 37.144726 250.692378 250.692378 0 0 0 33.450966 30.275022 380.14658 380.14658 0 0 0 69.456494 40.769444c-1.311803 0.379732-2.589084 0.793986-3.900886 1.139197-2.968816 0.793986-5.903112 1.691535-8.906449 2.312915s-5.972154 1.449887-8.975492 1.933183c-6.006675 1.173718-12.082392 2.105788-18.158109 2.830731s-12.185956 1.035634-18.296194 1.20824a22.991066 22.991066 0 0 0-23.163672 33.796177l1.001113 1.86414a235.088831 235.088831 0 0 0 46.603512 58.444257 365.578667 365.578667 0 0 0 58.030004 43.634697 517.057344 517.057344 0 0 0 59.238243 31.069008c-1.518929 1.001112-3.003337 2.036746-4.556788 3.037859a452.917102 452.917102 0 0 1-66.55672 35.315106 349.388261 349.388261 0 0 1-70.975424 22.058996c-5.972154 1.104676-12.01335 2.071267-18.054546 2.830732s-12.01335 1.24276-18.054546 1.553451-11.978829 0.31069-17.985504 0.172605-11.840744-0.655901-17.743856-1.311802h-0.276169a28.687051 28.687051 0 0 0-17.26056 53.92199c23.370799 12.047871 47.466541 23.612446 72.494353 33.692614a556.031689 556.031689 0 0 0 77.638 25.062333 571.635236 571.635236 0 0 0 80.503253 13.325153c13.463237 1.104676 26.960995 2.105788 40.389711 2.450999 6.697097 0.379732 13.532279 0.379732 20.33294 0.448775s13.808448 0.172606 20.091292 0l19.331828-0.414253 20.505546-1.139197c13.428716-0.517817 26.822911-2.174831 40.217105-3.452113a712.999225 712.999225 0 0 0 79.743789-13.808448 646.200856 646.200856 0 0 0 77.983211-22.991066 663.047163 663.047163 0 0 0 74.807268-32.829586 638.640731 638.640731 0 0 0 69.90527-42.806189 584.235445 584.235445 0 0 0 63.48434-52.126892 573.706503 573.706503 0 0 0 55.717089-60.446483c8.837407-10.356336 16.570138-21.851869 24.717122-32.829585 7.491083-11.461012 15.430941-22.680376 22.231602-34.521121a636.983717 636.983717 0 0 0 37.731585-72.770522 726.496983 726.496983 0 0 0 28.479924-76.602367 757.324343 757.324343 0 0 0 19.642518-79.225971c2.727169-13.187068 4.694872-26.960995 6.662576-40.700401 1.139197-7.07683 1.760577-13.325153 2.451-19.746081l0.448774-4.142535c1.864141-1.657014 3.797323-3.452112 5.557901-5.005562l9.493308-9.21714c3.210464-3.037859 6.144759-6.351886 9.217139-9.493308s6.110238-6.317365 8.975491-9.631392l8.768365-9.734956c2.934295-3.244985 5.592422-6.731619 8.354111-10.080168s5.592422-6.904224 8.181506-10.356336a514.571823 514.571823 0 0 0 29.860769-42.737147c4.591309-7.38752 9.044534-14.878603 13.221589-22.47325 2.105788-3.900887 4.211577-7.663689 6.179281-11.668138s4.142534-8.31959 6.110238-12.565688l1.380845-3.07238a23.854094 23.854094 0 0 0 1.691535-15.154772z m-107.015474 64.38189c-2.692647 2.727169-5.5579 5.24721-8.388632 7.836294s-5.5579 5.212689-8.492196 7.629168l-8.699322 7.38752c-2.830732 2.485521-5.937633 4.729394-8.871928 6.904224s-5.86859 4.798436-8.975492 6.904224l-9.182618 6.593534c-6.041196 4.418703-12.462125 8.31959-18.641405 12.496646a36.316219 36.316219 0 0 0-15.741631 26.581263v1.311802l-1.760577 19.228264c-0.586859 6.420928-1.139197 12.979941-1.967704 18.675927-1.55345 11.771702-2.968816 23.543404-5.24721 35.660317a680.618414 680.618414 0 0 1-16.121363 71.286114 644.992617 644.992617 0 0 1-24.164785 68.69703 556.929238 556.929238 0 0 1-32.242726 64.934228c-5.765027 10.667026-12.63473 20.712672-19.021138 30.861882-6.904224 9.769477-13.601322 19.918687-21.26501 29.27391a502.282305 502.282305 0 0 1-48.018879 54.025554 518.058457 518.058457 0 0 1-55.233793 46.914203 575.018306 575.018306 0 0 1-61.171426 38.974345 603.877962 603.877962 0 0 1-66.176988 30.447628 582.958163 582.958163 0 0 1-69.836227 21.920912 637.67414 637.67414 0 0 1-72.321747 13.808448c-12.220477 1.346324-24.440953 3.141422-36.764994 3.797323l-18.054546 1.346324-19.331827 0.793986c-6.593534 0.345211-12.393082 0.241648-18.537842 0.345211s-12.116913 0.172606-18.296194 0c-12.358561 0-24.579038-0.828507-36.834036-1.622493a509.462698 509.462698 0 0 1-72.114621-10.597984q-8.837407-1.933183-17.605771-4.246098 19.469912-4.867478 38.422007-11.391969A524.893639 524.893639 0 0 0 426.784614 835.411118a512.707683 512.707683 0 0 0 73.32286-48.709301 38.905303 38.905303 0 0 0-13.808448-67.834002L483.295688 718.039308a474.527324 474.527324 0 0 1-118.718133-35.694838 310.690085 310.690085 0 0 1-52.817315-30.378587l-1.898662-1.484408 5.972154-0.379732c7.594647-0.517817 15.189293-1.346324 22.714898-2.485521a283.867175 283.867175 0 0 0 45.326231-10.356336 221.17682 221.17682 0 0 0 22.645855-8.595759c3.797323-1.55345 7.594647-3.452112 11.357449-5.454337s7.594647-4.280619 11.39197-6.45545A37.351852 37.351852 0 0 0 422.883727 548.885817l-8.216026-2.830732a621.587297 621.587297 0 0 1-74.84179-15.12025 330.53973 330.53973 0 0 1-69.042241-26.719348 168.601153 168.601153 0 0 1-54.543371-44.497724 124.793851 124.793851 0 0 1-17.26056-30.378586c-1.173718-3.003337-2.243873-6.041196-3.175943-9.148097 3.452112 1.173718 6.662576 2.451 10.045646 3.452112a339.756869 339.756869 0 0 0 36.523346 8.561238 289.632202 289.632202 0 0 0 38.21488 4.31514c3.244985 0.241648 6.731619 0 10.14921 0.207127s6.904224-0.207127 10.632505-0.414254a109.121262 109.121262 0 0 0 11.426491-1.277281 126.865118 126.865118 0 0 0 12.772814-2.830732 37.973233 37.973233 0 0 0 26.581263-24.164785 37.524458 37.524458 0 0 0-23.163672-47.708188l-4.487745-1.51893a68.800593 68.800593 0 0 1-11.530055-4.763914 103.563362 103.563362 0 0 1-12.220476-7.456562 158.797155 158.797155 0 0 1-23.577926-21.057884 220.486397 220.486397 0 0 1-37.28281-56.0623 225.80265 225.80265 0 0 1-12.116913-32.070121c-1.55345-5.454337-2.934295-11.012237-4.073493-16.570138s-2.002225-11.219364-2.658126-16.846306-1.035634-11.288406-1.173718-16.949871v-7.801773a843.074807 843.074807 0 0 0 190.211374 139.327243q31.72491 16.708222 65.072313 30.344065A705.404578 705.404578 0 0 0 543.017227 372.828102c11.530054 3.452112 23.198193 6.593534 34.900853 9.389745s23.508883 5.385295 35.384148 7.594647 23.785052 4.211577 35.72936 5.834069 24.164784 2.934295 36.005529 4.108013a39.285035 39.285035 0 0 0 40.113542-51.78168l-0.241648-0.759465a193.76705 193.76705 0 0 1-11.012237-56.234906 148.855072 148.855072 0 0 1 7.870815-53.956511c11.70266-34.244952 37.351852-63.898594 70.077875-83.368506a180.890672 180.890672 0 0 1 108.845093-25.338503 142.123453 142.123453 0 0 1 51.781681 15.016688 132.112328 132.112328 0 0 1 41.252739 33.485487l9.148097 7.836294a30.689276 30.689276 0 0 0 28.96322 5.834069q18.77949-5.799548 37.248289-12.427603c6.179281-2.243873 12.32404-4.694872 18.434279-6.904224s12.151434-5.109126 18.227152-7.629168c3.452112-1.449887 6.904224-3.037859 10.18373-4.62583q-13.5668 26.305094-28.238277 52.023329a14.395307 14.395307 0 0 0 11.495534 23.439841h2.865253l55.026666-1.20824c-9.320703 10.908674-19.193743 21.334053-29.515558 31.276136z m0 0" p-id="1808" fill="#1296db"></path></svg>